<svg width="20" height="14" viewBox="0 0 20 14" fill="none" xmlns="http://www.w3.org/2000/svg">
    <path
        d="M19.6666 6.64596C19.6666 6.64596 16.0416 0.00012207 9.99992 0.00012207C3.95825 0.00012207 0.333252 6.64596 0.333252 6.64596C0.333252 6.64596 3.95825 13.2918 9.99992 13.2918C16.0416 13.2918 19.6666 6.64596 19.6666 6.64596ZM1.75063 6.64596C2.33487 5.75798 3.00686 4.93095 3.75646 4.17733C5.31159 2.61979 7.43825 1.20846 9.99992 1.20846C12.5616 1.20846 14.687 2.61979 16.2446 4.17733C16.9942 4.93095 17.6662 5.75798 18.2504 6.64596C18.1803 6.75108 18.103 6.86708 18.0148 6.99396C17.61 7.57396 17.0119 8.34729 16.2446 9.11458C14.687 10.6721 12.5604 12.0835 9.99992 12.0835C7.43825 12.0835 5.31279 10.6721 3.75525 9.11458C3.00566 8.36095 2.33488 7.53393 1.75063 6.64596Z"
        fill="#848484" />
    <path
        d="M9.99992 3.6252C9.19874 3.6252 8.43038 3.94347 7.86387 4.50998C7.29735 5.0765 6.97909 5.84486 6.97909 6.64604C6.97909 7.44721 7.29735 8.21557 7.86387 8.78209C8.43038 9.3486 9.19874 9.66687 9.99992 9.66687C10.8011 9.66687 11.5695 9.3486 12.136 8.78209C12.7025 8.21557 13.0208 7.44721 13.0208 6.64604C13.0208 5.84486 12.7025 5.0765 12.136 4.50998C11.5695 3.94347 10.8011 3.6252 9.99992 3.6252ZM5.77075 6.64604C5.77075 5.52439 6.21632 4.44869 7.00945 3.65556C7.80257 2.86244 8.87827 2.41687 9.99992 2.41687C11.1216 2.41687 12.1973 2.86244 12.9904 3.65556C13.7835 4.44869 14.2291 5.52439 14.2291 6.64604C14.2291 7.76768 13.7835 8.84339 12.9904 9.63651C12.1973 10.4296 11.1216 10.8752 9.99992 10.8752C8.87827 10.8752 7.80257 10.4296 7.00945 9.63651C6.21632 8.84339 5.77075 7.76768 5.77075 6.64604Z"
        fill="#848484" />
</svg>
