<svg width="20" height="16" viewBox="0 0 20 16" fill="none" xmlns="http://www.w3.org/2000/svg">
    <path
        d="M16.1424 11.5903C18.1978 9.75605 19.3336 7.67771 19.3336 7.67771C19.3336 7.67771 15.7086 1.03186 9.66691 1.03186C8.50642 1.03586 7.35906 1.27767 6.29565 1.74236L7.22607 2.67399C8.00839 2.38901 8.83431 2.24222 9.66691 2.2402C12.2286 2.2402 14.354 3.65153 15.9116 5.20908C16.6612 5.96271 17.3332 6.78974 17.9174 7.67771C17.8474 7.78284 17.77 7.89884 17.6818 8.02571C17.277 8.60571 16.6789 9.37905 15.9116 10.1463C15.7122 10.3457 15.5044 10.5427 15.2869 10.7336L16.1424 11.5903Z"
        fill="#848484" />
    <path
        d="M13.6507 9.09865C13.9203 8.34445 13.9702 7.5292 13.7947 6.74773C13.6191 5.96627 13.2252 5.25073 12.6588 4.68438C12.0925 4.11802 11.3769 3.72414 10.5955 3.54855C9.81402 3.37297 8.99876 3.42291 8.24457 3.69255L9.23903 4.68701C9.7034 4.62054 10.1769 4.66314 10.6219 4.81143C11.067 4.95971 11.4714 5.20961 11.8031 5.54132C12.1348 5.87303 12.3847 6.27743 12.533 6.72249C12.6813 7.16754 12.7239 7.64102 12.6574 8.1054L13.6507 9.09865ZM10.0945 10.6683L11.0878 11.6615C10.3336 11.9312 9.51833 11.9811 8.73687 11.8055C7.9554 11.6299 7.23987 11.2361 6.67351 10.6697C6.10716 10.1033 5.71327 9.38781 5.53769 8.60635C5.3621 7.82488 5.41204 7.00962 5.68169 6.25543L6.67615 7.24989C6.60968 7.71427 6.65228 8.18774 6.80056 8.6328C6.94885 9.07785 7.19875 9.48226 7.53045 9.81397C7.86216 10.1457 8.26657 10.3956 8.71162 10.5439C9.15668 10.6921 9.63016 10.7347 10.0945 10.6683Z"
        fill="#848484" />
    <path
        d="M4.04793 4.62068C3.83043 4.81401 3.62138 5.00976 3.42201 5.20914C2.67241 5.96277 2.00043 6.7898 1.41617 7.67777L1.6518 8.02577C2.05659 8.60577 2.65472 9.37911 3.42201 10.1464C4.97955 11.7039 7.10623 13.1153 9.66669 13.1153C10.5319 13.1153 11.3463 12.9546 12.1075 12.6803L13.0379 13.6131C11.9745 14.0778 10.8272 14.3196 9.66669 14.3236C3.62501 14.3236 0 7.67777 0 7.67777C0 7.67777 1.13463 5.59822 3.19122 3.76518L4.04672 4.62189L4.04793 4.62068ZM16.489 15.3555L1.98892 0.855502L2.84442 0L17.3445 14.5L16.489 15.3555Z"
        fill="#848484" />
</svg>
