<?xml version="1.0" standalone="no"?>
<!DOCTYPE svg PUBLIC "-//W3C//DTD SVG 20010904//EN"
 "http://www.w3.org/TR/2001/REC-SVG-20010904/DTD/svg10.dtd">
<svg version="1.0" xmlns="http://www.w3.org/2000/svg"
 width="1200.000000pt" height="800.000000pt" viewBox="0 0 1200.000000 800.000000"
 preserveAspectRatio="xMidYMid meet">

<g transform="translate(0.000000,800.000000) scale(0.100000,-0.100000)"
fill="#000000" stroke="none">
<path d="M5850 5701 c-404 -89 -698 -388 -781 -796 -19 -92 -16 -258 5 -335
61 -221 250 -494 551 -795 155 -156 407 -375 429 -375 21 0 230 183 394 344
306 300 477 534 568 776 27 71 28 84 28 225 0 122 -5 165 -22 230 -24 88 -93
239 -144 313 -46 68 -173 197 -244 248 -81 58 -228 127 -329 154 -115 32 -337
37 -455 11z m297 -52 c243 -27 470 -147 623 -331 78 -95 163 -264 191 -383 31
-129 31 -267 1 -365 -89 -285 -424 -689 -894 -1078 -14 -12 -29 -2 -125 79
-150 129 -422 403 -523 529 -142 178 -223 313 -271 455 -21 60 -24 87 -23 195
2 147 23 240 84 368 50 106 87 158 173 249 146 154 346 255 559 282 91 12 99
12 205 0z"/>
<path d="M5901 5479 c-177 -35 -358 -143 -471 -282 -58 -71 -131 -214 -155
-302 -25 -98 -30 -239 -11 -315 32 -126 117 -275 249 -440 81 -100 318 -336
441 -437 l98 -82 75 61 c411 340 688 701 722 940 16 117 -9 272 -64 394 -108
238 -318 407 -567 458 -82 17 -244 20 -317 5z m243 -59 c252 -36 465 -190 572
-415 43 -91 64 -170 70 -275 5 -73 2 -96 -20 -165 -47 -146 -144 -293 -327
-494 -83 -92 -279 -277 -361 -341 l-27 -21 -103 90 c-118 103 -299 284 -383
385 -83 99 -167 232 -206 323 -64 153 -49 339 43 523 59 117 188 248 303 307
153 79 286 104 439 83z"/>
<path d="M5935 5250 c-284 -57 -498 -326 -483 -605 8 -137 82 -274 250 -465
83 -94 292 -288 335 -311 20 -11 30 -5 105 59 46 39 133 121 194 184 236 240
338 430 319 596 -29 261 -206 470 -450 532 -81 21 -195 25 -270 10z m250 -75
c233 -61 398 -271 400 -506 0 -83 -2 -89 -47 -180 -26 -52 -78 -132 -116 -179
-77 -95 -346 -360 -366 -360 -20 0 -205 169 -292 266 -209 234 -272 381 -234
553 28 131 124 267 242 342 112 72 281 98 413 64z"/>
<path d="M5950 5014 c-117 -31 -203 -103 -258 -212 -35 -71 -37 -82 -37 -166
0 -79 4 -98 27 -141 57 -109 193 -265 320 -369 48 -38 48 -38 75 -21 16 10 84
75 153 144 132 133 188 213 216 310 32 108 -17 260 -113 353 -104 101 -245
139 -383 102z m245 -84 c107 -52 183 -162 193 -278 4 -57 2 -69 -31 -135 -39
-77 -144 -204 -240 -288 -55 -49 -60 -51 -84 -38 -43 23 -226 223 -266 290
-50 86 -60 126 -48 194 22 116 101 216 207 261 78 33 194 30 269 -6z"/>
<path d="M5965 4776 c-62 -28 -115 -110 -115 -178 1 -56 36 -116 119 -200 l80
-81 50 42 c64 53 138 151 150 199 15 57 -11 145 -55 183 -55 48 -163 65 -229
35z"/>
<path d="M3630 3575 l0 -105 75 0 c43 0 75 4 75 10 0 6 -27 10 -60 10 l-60 0
0 35 0 35 50 0 c28 0 50 5 50 10 0 6 -22 10 -50 10 l-50 0 0 40 0 40 55 0 c30
0 55 5 55 10 0 6 -30 10 -70 10 l-70 0 0 -105z"/>
<path d="M3842 3668 c-30 -15 -40 -55 -18 -76 9 -10 38 -24 64 -32 56 -18 67
-45 26 -60 -19 -8 -37 -7 -61 1 -36 12 -54 6 -36 -12 17 -17 81 -22 113 -9 34
14 49 52 30 75 -7 8 -31 20 -54 27 -22 6 -47 16 -53 21 -37 28 17 66 68 48 34
-12 49 3 20 18 -25 14 -69 13 -99 -1z"/>
<path d="M3980 3670 c0 -5 16 -10 35 -10 l35 0 0 -95 c0 -78 3 -95 15 -95 12
0 15 17 15 95 l0 95 35 0 c19 0 35 5 35 10 0 6 -35 10 -85 10 -50 0 -85 -4
-85 -10z"/>
<path d="M4180 3575 l0 -105 49 0 c70 0 107 16 125 55 43 89 -10 155 -123 155
l-51 0 0 -105z m119 70 c41 -20 54 -71 31 -115 -10 -20 -59 -40 -96 -40 -23 0
-24 2 -24 85 l0 85 30 0 c17 0 44 -7 59 -15z"/>
<path d="M7793 3670 c-13 -5 -23 -14 -23 -20 0 -13 12 -13 45 0 33 13 65 -3
65 -31 0 -11 -25 -46 -55 -78 -30 -32 -55 -61 -55 -64 0 -4 34 -7 75 -7 43 0
75 4 75 10 0 6 -22 10 -50 10 -27 0 -50 3 -50 6 0 4 20 29 45 55 49 53 55 79
25 109 -21 21 -60 25 -97 10z"/>
<path d="M7973 3656 c-25 -21 -28 -31 -28 -81 0 -50 3 -60 28 -81 15 -13 39
-24 52 -24 13 0 37 11 52 24 25 21 28 31 28 81 0 50 -3 60 -28 81 -15 13 -39
24 -52 24 -13 0 -37 -11 -52 -24z m99 -35 c5 -14 7 -44 5 -66 -13 -94 -107
-77 -107 20 0 23 6 48 13 57 27 34 73 29 89 -11z"/>
<path d="M8153 3670 c-13 -5 -23 -14 -23 -20 0 -13 12 -13 45 0 33 13 65 -3
65 -31 0 -11 -25 -46 -55 -78 -30 -32 -55 -61 -55 -64 0 -4 34 -7 75 -7 43 0
75 4 75 10 0 6 -22 10 -50 10 -27 0 -50 3 -50 6 0 4 20 29 45 55 49 53 55 79
25 109 -21 21 -60 25 -97 10z"/>
<path d="M8300 3670 c0 -5 9 -10 20 -10 19 0 20 -7 20 -95 0 -78 3 -95 15 -95
12 0 15 18 15 105 l0 105 -35 0 c-19 0 -35 -4 -35 -10z"/>
<path d="M4394 3499 c-10 -17 13 -36 27 -22 12 12 4 33 -11 33 -5 0 -12 -5
-16 -11z"/>
<path d="M4930 2931 c-112 -34 -174 -119 -174 -236 0 -76 15 -117 63 -168 81
-88 245 -101 332 -27 l34 29 -26 26 -26 26 -39 -26 c-34 -23 -47 -26 -99 -23
-107 7 -161 69 -153 177 7 98 65 151 166 151 36 0 59 -7 87 -26 l38 -25 26 26
26 26 -34 29 c-51 43 -152 62 -221 41z"/>
<path d="M6410 2931 c-114 -37 -174 -119 -174 -236 0 -101 42 -171 129 -218
60 -32 173 -31 240 3 171 86 173 340 3 428 -51 26 -153 38 -198 23z m160 -93
c58 -40 75 -72 75 -143 0 -49 -5 -70 -21 -92 -36 -49 -82 -73 -138 -73 -107 0
-169 67 -164 175 6 102 62 154 164 155 37 0 60 -6 84 -22z"/>
<path d="M3400 2695 l0 -235 45 0 45 0 0 70 0 70 88 0 c132 1 188 33 212 122
23 84 -30 173 -117 197 -21 6 -91 11 -155 11 l-118 0 0 -235z m242 155 c69
-19 90 -93 44 -147 -23 -26 -31 -28 -110 -32 l-86 -3 0 96 0 96 58 0 c31 0 74
-5 94 -10z"/>
<path d="M3880 2695 l0 -235 165 0 165 0 0 35 0 35 -120 0 -120 0 0 200 0 200
-45 0 -45 0 0 -235z"/>
<path d="M4420 2903 c-7 -16 -53 -118 -102 -228 -50 -110 -92 -204 -95 -208
-3 -5 16 -7 42 -5 47 3 48 4 69 55 l21 53 118 0 118 0 24 -55 c25 -55 25 -55
70 -55 l44 0 -35 78 c-19 42 -67 148 -106 235 l-71 157 -42 0 c-36 0 -44 -4
-55 -27z m99 -162 c22 -51 41 -95 41 -97 0 -2 -39 -4 -86 -4 -73 0 -85 2 -80
15 19 50 79 185 81 183 1 -2 21 -45 44 -97z"/>
<path d="M5270 2695 l0 -235 175 0 175 0 0 35 0 35 -130 0 -130 0 0 65 0 65
115 0 115 0 0 35 0 35 -115 0 -115 0 0 65 0 65 125 0 125 0 0 35 0 35 -170 0
-170 0 0 -235z"/>
<path d="M5720 2695 l0 -235 45 0 45 0 0 100 0 100 120 0 120 0 0 -100 0 -100
45 0 45 0 0 235 0 235 -45 0 -45 0 0 -100 0 -100 -120 0 -120 0 0 100 0 100
-45 0 -45 0 0 -235z"/>
<path d="M6830 2695 l0 -235 165 0 165 0 0 35 0 35 -120 0 -120 0 0 200 0 200
-45 0 -45 0 0 -235z"/>
<path d="M7230 2695 l0 -237 148 4 c139 3 150 5 199 32 91 50 135 147 113 250
-15 71 -48 116 -111 151 -52 28 -60 30 -201 33 l-148 4 0 -237z m295 139 c60
-30 80 -64 80 -139 0 -110 -56 -156 -202 -163 l-83 -5 0 168 0 168 83 -5 c54
-3 96 -11 122 -24z"/>
<path d="M7780 2695 l0 -235 175 0 175 0 0 35 0 35 -130 0 -130 0 0 65 0 65
115 0 115 0 0 35 0 35 -115 0 -115 0 0 65 0 65 125 0 125 0 0 35 0 35 -170 0
-170 0 0 -235z"/>
<path d="M8230 2695 l0 -235 45 0 45 0 0 70 0 70 63 0 63 0 48 -70 c47 -69 49
-70 93 -70 50 0 51 -5 -15 89 -42 59 -44 64 -26 74 58 33 91 106 78 175 -9 48
-67 106 -119 121 -22 6 -93 11 -157 11 l-118 0 0 -235z m242 155 c69 -19 90
-93 44 -147 -23 -26 -31 -28 -110 -32 l-86 -3 0 96 0 96 58 0 c31 0 74 -5 94
-10z"/>
</g>
</svg>
